<svg xmlns="http://www.w3.org/2000/svg" xmlns:xlink="http://www.w3.org/1999/xlink" width="2800" zoomAndPan="magnify" viewBox="0 0 2100 467.999983" height="624" preserveAspectRatio="xMidYMid meet" version="1.0"><defs><g/><clipPath id="8d0460fa7a"><rect x="0" width="2100" y="0" height="429"/></clipPath></defs><g transform="matrix(1, 0, 0, 1, 0, 17)"><g clip-path="url(#8d0460fa7a)"><g fill="#171717" fill-opacity="1"><g transform="translate(0.0000374679, 330.295299)"><g><path d="M 232.296875 5.3125 C 211.015625 5.3125 191.863281 3.128906 174.84375 -1.234375 C 157.820312 -5.609375 143.28125 -11.875 131.21875 -20.03125 C 119.164062 -28.195312 109.945312 -37.953125 103.5625 -49.296875 C 97.175781 -60.648438 93.984375 -73.179688 93.984375 -86.890625 C 93.984375 -100.597656 97.175781 -113.066406 103.5625 -124.296875 C 109.945312 -135.535156 119.164062 -145.234375 131.21875 -153.390625 C 143.28125 -161.546875 157.820312 -167.8125 174.84375 -172.1875 C 191.863281 -176.5625 211.015625 -178.75 232.296875 -178.75 C 257.835938 -178.75 280.597656 -175.140625 300.578125 -167.921875 C 320.554688 -160.710938 336.21875 -150.25 347.5625 -136.53125 C 358.914062 -122.820312 364.59375 -106.273438 364.59375 -86.890625 C 364.59375 -66.554688 358.914062 -49.53125 347.5625 -35.8125 C 336.21875 -22.101562 320.554688 -11.820312 300.578125 -4.96875 C 280.597656 1.882812 257.835938 5.3125 232.296875 5.3125 Z M 200.375 -48.9375 C 216.457031 -48.9375 230.171875 -50.351562 241.515625 -53.1875 C 252.867188 -56.03125 261.5 -60.226562 267.40625 -65.78125 C 273.320312 -71.34375 276.28125 -78.378906 276.28125 -86.890625 C 276.28125 -99.421875 269.660156 -108.878906 256.421875 -115.265625 C 243.179688 -121.648438 224.5 -124.84375 200.375 -124.84375 C 182.40625 -124.84375 165.914062 -123.773438 150.90625 -121.640625 C 135.894531 -119.515625 123.835938 -115.671875 114.734375 -110.109375 C 105.628906 -104.554688 101.078125 -96.816406 101.078125 -86.890625 C 101.078125 -76.960938 105.628906 -69.21875 114.734375 -63.65625 C 123.835938 -58.101562 135.894531 -54.257812 150.90625 -52.125 C 165.914062 -50 182.40625 -48.9375 200.375 -48.9375 Z M 15.953125 -173.78125 L 96.109375 -173.78125 L 101.078125 -106.390625 L 101.078125 70.9375 L 15.953125 70.9375 Z M 15.953125 -173.78125 "/></g></g></g><g fill="#171717" fill-opacity="1"><g transform="translate(377.007564, 330.295299)"><g><path d="M 256.421875 0 L 256.421875 -64.546875 C 256.421875 -75.179688 254.289062 -84.164062 250.03125 -91.5 C 245.78125 -98.832031 238.273438 -104.328125 227.515625 -107.984375 C 216.753906 -111.648438 201.5625 -113.484375 181.9375 -113.484375 C 170.820312 -113.484375 160.003906 -112.476562 149.484375 -110.46875 C 138.960938 -108.457031 129.503906 -106.035156 121.109375 -103.203125 C 112.722656 -100.367188 106.046875 -97.53125 101.078125 -94.6875 L 100.375 -111.71875 C 101.3125 -115.257812 104.554688 -120.632812 110.109375 -127.84375 C 115.671875 -135.0625 123.769531 -142.628906 134.40625 -150.546875 C 145.050781 -158.472656 158.472656 -165.210938 174.671875 -170.765625 C 190.867188 -176.316406 210.078125 -179.09375 232.296875 -179.09375 C 246.242188 -179.09375 259.71875 -177.789062 272.71875 -175.1875 C 285.726562 -172.59375 297.375 -168.28125 307.65625 -162.25 C 317.945312 -156.226562 326.164062 -148.132812 332.3125 -137.96875 C 338.457031 -127.800781 341.53125 -115.148438 341.53125 -100.015625 L 341.53125 0 Z M 19.5 0 L 19.5 -244.71875 L 104.625 -244.71875 L 104.625 0 Z M 19.5 0 "/></g></g></g><g fill="#171717" fill-opacity="1"><g transform="translate(734.508636, 330.295299)"><g><path d="M 180.875 5.3125 C 143.28125 5.3125 112.007812 2.238281 87.0625 -3.90625 C 62.125 -10.050781 43.445312 -19.859375 31.03125 -33.328125 C 18.613281 -46.804688 12.40625 -64.539062 12.40625 -86.53125 C 12.40625 -108.519531 18.613281 -126.3125 31.03125 -139.90625 C 43.445312 -153.5 62.125 -163.425781 87.0625 -169.6875 C 112.007812 -175.957031 143.28125 -179.09375 180.875 -179.09375 C 218.226562 -179.09375 249.257812 -175.957031 273.96875 -169.6875 C 298.675781 -163.425781 317.175781 -153.5 329.46875 -139.90625 C 341.769531 -126.3125 347.921875 -108.519531 347.921875 -86.53125 C 347.921875 -64.539062 341.769531 -46.804688 329.46875 -33.328125 C 317.175781 -19.859375 298.675781 -10.050781 273.96875 -3.90625 C 249.257812 2.238281 218.226562 5.3125 180.875 5.3125 Z M 180.875 -46.109375 C 198.375 -46.109375 213.03125 -47.582031 224.84375 -50.53125 C 236.664062 -53.488281 245.648438 -57.984375 251.796875 -64.015625 C 257.953125 -70.046875 261.03125 -77.550781 261.03125 -86.53125 C 261.03125 -95.519531 258.015625 -103.085938 251.984375 -109.234375 C 245.953125 -115.378906 237.023438 -119.988281 225.203125 -123.0625 C 213.378906 -126.132812 198.601562 -127.671875 180.875 -127.671875 C 163.375 -127.671875 148.535156 -126.132812 136.359375 -123.0625 C 124.179688 -119.988281 114.957031 -115.4375 108.6875 -109.40625 C 102.425781 -103.382812 99.296875 -95.757812 99.296875 -86.53125 C 99.296875 -77.550781 102.367188 -70.046875 108.515625 -64.015625 C 114.671875 -57.984375 123.835938 -53.488281 136.015625 -50.53125 C 148.191406 -47.582031 163.144531 -46.109375 180.875 -46.109375 Z M 180.875 -46.109375 "/></g></g></g><g fill="#171717" fill-opacity="1"><g transform="translate(1094.846959, 330.295299)"><g><path d="M 340.109375 -75.546875 C 340.109375 -58.515625 334.789062 -43.96875 324.15625 -31.90625 C 313.519531 -19.851562 296.734375 -10.632812 273.796875 -4.25 C 250.859375 2.125 221.066406 5.3125 184.421875 5.3125 C 147.773438 5.3125 116.625 2.359375 90.96875 -3.546875 C 65.3125 -9.453125 45.800781 -19.144531 32.4375 -32.625 C 19.082031 -46.101562 12.40625 -64.070312 12.40625 -86.53125 C 12.40625 -109 19.082031 -127.03125 32.4375 -140.625 C 45.800781 -154.21875 65.3125 -164.023438 90.96875 -170.046875 C 116.625 -176.078125 147.773438 -179.09375 184.421875 -179.09375 C 221.066406 -179.09375 250.738281 -175.898438 273.4375 -169.515625 C 296.132812 -163.140625 312.800781 -153.921875 323.4375 -141.859375 C 334.082031 -129.804688 339.523438 -115.382812 339.765625 -98.59375 L 261.734375 -98.59375 C 257.953125 -107.8125 249.441406 -114.960938 236.203125 -120.046875 C 222.960938 -125.128906 205.703125 -127.671875 184.421875 -127.671875 C 167.160156 -127.671875 152.144531 -126.429688 139.375 -123.953125 C 126.613281 -121.472656 116.742188 -117.273438 109.765625 -111.359375 C 102.785156 -105.453125 99.296875 -97.175781 99.296875 -86.53125 C 99.296875 -76.132812 102.722656 -67.976562 109.578125 -62.0625 C 116.441406 -56.15625 126.253906 -52.019531 139.015625 -49.65625 C 151.785156 -47.289062 166.921875 -46.109375 184.421875 -46.109375 C 205.703125 -46.109375 223.019531 -48.648438 236.375 -53.734375 C 249.738281 -58.816406 258.3125 -66.085938 262.09375 -75.546875 Z M 340.109375 -75.546875 "/></g></g></g><g fill="#171717" fill-opacity="1"><g transform="translate(1447.382609, 330.295299)"><g><path d="M 337.984375 0 L 252.875 0 L 252.875 -173.78125 L 337.984375 -173.78125 Z M 256.421875 -89.734375 L 257.125 -72.703125 C 256.414062 -67.734375 254.109375 -61.9375 250.203125 -55.3125 C 246.304688 -48.695312 240.925781 -41.84375 234.0625 -34.75 C 227.207031 -27.65625 218.816406 -21.09375 208.890625 -15.0625 C 198.960938 -9.039062 187.613281 -4.140625 174.84375 -0.359375 C 162.070312 3.421875 147.882812 5.3125 132.28125 5.3125 C 116.675781 5.3125 101.898438 3.71875 87.953125 0.53125 C 74.003906 -2.65625 61.59375 -7.914062 50.71875 -15.25 C 39.84375 -22.582031 31.328125 -32.453125 25.171875 -44.859375 C 19.023438 -57.273438 15.953125 -72.820312 15.953125 -91.5 L 15.953125 -173.78125 L 101.078125 -173.78125 L 101.078125 -100.375 C 101.078125 -87.363281 103.265625 -77.3125 107.640625 -70.21875 C 112.015625 -63.125 118.929688 -58.21875 128.390625 -55.5 C 137.847656 -52.78125 150.023438 -51.421875 164.921875 -51.421875 C 178.867188 -51.421875 191.8125 -53.488281 203.75 -57.625 C 215.6875 -61.769531 226.207031 -66.796875 235.3125 -72.703125 C 244.414062 -78.617188 251.453125 -84.296875 256.421875 -89.734375 Z M 256.421875 -89.734375 "/></g></g></g><g fill="#171717" fill-opacity="1"><g transform="translate(1801.337115, 330.295299)"><g><path d="M 14.1875 -62.421875 L 92.5625 -62.421875 C 95.875 -56.273438 102.195312 -52.019531 111.53125 -49.65625 C 120.875 -47.289062 134.296875 -46.109375 151.796875 -46.109375 C 165.273438 -46.109375 175.265625 -46.816406 181.765625 -48.234375 C 188.265625 -49.648438 192.519531 -51.539062 194.53125 -53.90625 C 196.539062 -56.269531 197.546875 -58.753906 197.546875 -61.359375 C 197.546875 -65.378906 195.359375 -68.15625 190.984375 -69.6875 C 186.609375 -71.226562 179.21875 -72.175781 168.8125 -72.53125 C 158.414062 -72.882812 144.113281 -73.0625 125.90625 -73.0625 C 108.644531 -73.0625 93.21875 -73.828125 79.625 -75.359375 C 66.03125 -76.898438 54.503906 -79.382812 45.046875 -82.8125 C 35.585938 -86.238281 28.375 -91.023438 23.40625 -97.171875 C 18.4375 -103.316406 15.953125 -111.003906 15.953125 -120.234375 C 15.953125 -131.578125 19.617188 -141.085938 26.953125 -148.765625 C 34.285156 -156.453125 44.21875 -162.484375 56.75 -166.859375 C 69.28125 -171.234375 83.757812 -174.363281 100.1875 -176.25 C 116.625 -178.144531 133.828125 -179.09375 151.796875 -179.09375 C 181.585938 -179.09375 205.9375 -176.078125 224.84375 -170.046875 C 243.757812 -164.023438 257.707031 -155.929688 266.6875 -145.765625 C 275.675781 -135.597656 280.054688 -124.128906 279.828125 -111.359375 L 203.578125 -111.359375 C 200.972656 -117.503906 196.0625 -121.757812 188.84375 -124.125 C 181.632812 -126.488281 169.285156 -127.671875 151.796875 -127.671875 C 135.242188 -127.671875 123.242188 -126.429688 115.796875 -123.953125 C 108.347656 -121.472656 104.625 -117.515625 104.625 -112.078125 C 104.625 -108.523438 106.457031 -105.863281 110.125 -104.09375 C 113.789062 -102.320312 120.765625 -101.078125 131.046875 -100.359375 C 141.328125 -99.648438 156.398438 -99.296875 176.265625 -99.296875 C 189.972656 -99.296875 203.390625 -98.820312 216.515625 -97.875 C 229.640625 -96.9375 241.460938 -94.929688 251.984375 -91.859375 C 262.503906 -88.785156 270.835938 -84.054688 276.984375 -77.671875 C 283.128906 -71.285156 286.203125 -62.535156 286.203125 -51.421875 C 286.203125 -37.941406 280.703125 -27.003906 269.703125 -18.609375 C 258.710938 -10.222656 243.171875 -4.140625 223.078125 -0.359375 C 202.984375 3.421875 179.222656 5.3125 151.796875 5.3125 C 127.910156 5.3125 107.75 3.773438 91.3125 0.703125 C 74.882812 -2.367188 61.46875 -6.445312 51.0625 -11.53125 C 40.664062 -16.613281 32.6875 -22.164062 27.125 -28.1875 C 21.570312 -34.21875 17.910156 -40.25 16.140625 -46.28125 C 14.367188 -52.3125 13.71875 -57.691406 14.1875 -62.421875 Z M 14.1875 -62.421875 "/></g></g></g></g></g><g fill="#171717" fill-opacity="1"><g transform="translate(516.152758, 144.985431)"><g><path d="M 67.5625 0 L 57.453125 0 L 57.453125 -34.875 L 18.40625 -34.875 L 18.40625 0 L 8.4375 0 L 8.4375 -74.734375 L 18.40625 -74.734375 L 18.40625 -43.828125 L 57.453125 -43.828125 L 57.453125 -74.734375 L 67.5625 -74.734375 Z M 67.5625 0 "/></g></g></g><g fill="#171717" fill-opacity="1"><g transform="translate(660.152079, 144.985431)"><g><path d="M 66.546875 -37.375 C 66.546875 -46.113281 64.234375 -53.363281 59.609375 -59.125 C 54.984375 -64.882812 48.617188 -67.765625 40.515625 -67.765625 C 32.515625 -67.765625 26.175781 -64.882812 21.5 -59.125 C 16.820312 -53.363281 14.484375 -46.113281 14.484375 -37.375 C 14.484375 -28.351562 16.851562 -21.03125 21.59375 -15.40625 C 26.34375 -9.78125 32.648438 -6.96875 40.515625 -6.96875 C 48.210938 -6.96875 54.472656 -9.710938 59.296875 -15.203125 C 64.128906 -20.691406 66.546875 -28.082031 66.546875 -37.375 Z M 76.921875 -37.375 C 76.921875 -26.21875 73.703125 -16.867188 67.265625 -9.328125 C 60.828125 -1.785156 51.910156 1.984375 40.515625 1.984375 C 29.066406 1.984375 20.128906 -1.785156 13.703125 -9.328125 C 7.273438 -16.867188 4.0625 -26.21875 4.0625 -37.375 C 4.0625 -48.550781 7.273438 -57.898438 13.703125 -65.421875 C 20.128906 -72.953125 29.066406 -76.71875 40.515625 -76.71875 C 52.242188 -76.71875 61.242188 -72.882812 67.515625 -65.21875 C 73.785156 -57.5625 76.921875 -48.28125 76.921875 -37.375 Z M 76.921875 -37.375 "/></g></g></g><g fill="#171717" fill-opacity="1"><g transform="translate(809.133747, 144.985431)"><g><path d="M 60.40625 -52.265625 C 59.28125 -57.347656 56.929688 -61.203125 53.359375 -63.828125 C 49.785156 -66.453125 45.148438 -67.765625 39.453125 -67.765625 C 32.097656 -67.765625 26.179688 -65.09375 21.703125 -59.75 C 17.234375 -54.414062 15 -47.207031 15 -38.125 C 15 -27.625 17.113281 -19.804688 21.34375 -14.671875 C 25.582031 -9.535156 31.722656 -6.96875 39.765625 -6.96875 C 45.046875 -6.96875 49.59375 -8.71875 53.40625 -12.21875 C 57.21875 -15.726562 59.785156 -20.820312 61.109375 -27.5 L 70.921875 -27.5 C 69.597656 -17.914062 65.953125 -10.601562 59.984375 -5.5625 C 54.023438 -0.53125 46.773438 1.984375 38.234375 1.984375 C 28.035156 1.984375 19.875 -1.519531 13.75 -8.53125 C 7.632812 -15.550781 4.578125 -25.300781 4.578125 -37.78125 C 4.578125 -49.8125 7.769531 -59.304688 14.15625 -66.265625 C 20.550781 -73.234375 28.984375 -76.71875 39.453125 -76.71875 C 48.128906 -76.71875 55.160156 -74.476562 60.546875 -70 C 65.941406 -65.53125 69.144531 -59.617188 70.15625 -52.265625 Z M 60.40625 -52.265625 "/></g></g></g><g fill="#171717" fill-opacity="1"><g transform="translate(952.421319, 144.985431)"><g><path d="M 66.75 -74.734375 L 66.75 -26.234375 C 66.75 -17.960938 64.128906 -11.191406 58.890625 -5.921875 C 53.660156 -0.648438 46.25 1.984375 36.65625 1.984375 C 27.707031 1.984375 20.679688 -0.445312 15.578125 -5.3125 C 10.484375 -10.175781 7.9375 -16.691406 7.9375 -24.859375 L 7.9375 -74.734375 L 17.890625 -74.734375 L 17.890625 -27.703125 C 17.890625 -20.828125 19.609375 -15.648438 23.046875 -12.171875 C 26.492188 -8.703125 31.097656 -6.96875 36.859375 -6.96875 C 43.023438 -6.96875 47.84375 -8.703125 51.3125 -12.171875 C 54.789062 -15.648438 56.53125 -20.757812 56.53125 -27.5 L 56.53125 -74.734375 Z M 66.75 -74.734375 "/></g></g></g><g fill="#171717" fill-opacity="1"><g transform="translate(1094.946253, 144.985431)"><g><path d="M 52.46875 -52.875 C 52.269531 -57.625 50.5 -61.34375 47.15625 -64.03125 C 43.8125 -66.726562 39.414062 -68.078125 33.96875 -68.078125 C 28.46875 -68.078125 24.242188 -66.945312 21.296875 -64.6875 C 18.347656 -62.4375 16.875 -59.191406 16.875 -54.953125 C 16.875 -52.679688 17.519531 -50.734375 18.8125 -49.109375 C 20.101562 -47.484375 22.40625 -46.28125 25.71875 -45.5 L 47.078125 -40.625 C 52.835938 -39.363281 57.109375 -36.976562 59.890625 -33.46875 C 62.671875 -29.96875 64.0625 -25.691406 64.0625 -20.640625 C 64.0625 -13.253906 61.347656 -7.632812 55.921875 -3.78125 C 50.503906 0.0625 43.457031 1.984375 34.78125 1.984375 C 28.164062 1.984375 22.953125 1.140625 19.140625 -0.546875 C 15.328125 -2.242188 11.945312 -4.941406 9 -8.640625 C 6.050781 -12.335938 4.578125 -17.507812 4.578125 -24.15625 L 14.03125 -24.15625 C 14.03125 -18.59375 15.875 -14.285156 19.5625 -11.234375 C 23.257812 -8.179688 28.296875 -6.65625 34.671875 -6.65625 C 40.835938 -6.65625 45.640625 -7.75 49.078125 -9.9375 C 52.523438 -12.125 54.25 -15.234375 54.25 -19.265625 C 54.25 -22.929688 53.222656 -25.671875 51.171875 -27.484375 C 49.117188 -29.296875 45.113281 -30.894531 39.15625 -32.28125 L 23.03125 -36.046875 C 17.675781 -37.265625 13.675781 -39.390625 11.03125 -42.421875 C 8.382812 -45.460938 7.0625 -49.203125 7.0625 -53.640625 C 7.0625 -60.347656 9.320312 -65.867188 13.84375 -70.203125 C 18.375 -74.546875 24.691406 -76.71875 32.796875 -76.71875 C 41.941406 -76.71875 49 -74.8125 53.96875 -71 C 58.9375 -67.1875 61.609375 -61.144531 61.984375 -52.875 Z M 52.46875 -52.875 "/></g></g></g><g fill="#171717" fill-opacity="1"><g transform="translate(1231.887077, 144.985431)"><g/></g></g><g fill="#171717" fill-opacity="1"><g transform="translate(1325.300225, 144.985431)"><g/></g></g><g fill="#171717" fill-opacity="1"><g transform="translate(1418.719098, 144.985431)"><g><path d="M 18.5625 -40.21875 L 38.640625 -40.21875 C 43.691406 -40.21875 47.488281 -41.328125 50.03125 -43.546875 C 52.570312 -45.765625 53.84375 -49.128906 53.84375 -53.640625 C 53.84375 -57.671875 52.617188 -60.753906 50.171875 -62.890625 C 47.734375 -65.023438 44.023438 -66.09375 39.046875 -66.09375 L 18.5625 -66.09375 Z M 18.5625 0 L 8.4375 0 L 8.4375 -74.734375 L 42.046875 -74.734375 C 48.722656 -74.734375 54.09375 -72.789062 58.15625 -68.90625 C 62.226562 -65.03125 64.265625 -59.972656 64.265625 -53.734375 C 64.265625 -47.265625 62.296875 -41.953125 58.359375 -37.796875 C 54.429688 -33.648438 48.992188 -31.578125 42.046875 -31.578125 L 18.5625 -31.578125 Z M 18.5625 0 "/></g></g></g><g fill="#171717" fill-opacity="1"><g transform="translate(1554.024712, 144.985431)"><g><path d="M 66.546875 -37.375 C 66.546875 -46.113281 64.234375 -53.363281 59.609375 -59.125 C 54.984375 -64.882812 48.617188 -67.765625 40.515625 -67.765625 C 32.515625 -67.765625 26.175781 -64.882812 21.5 -59.125 C 16.820312 -53.363281 14.484375 -46.113281 14.484375 -37.375 C 14.484375 -28.351562 16.851562 -21.03125 21.59375 -15.40625 C 26.34375 -9.78125 32.648438 -6.96875 40.515625 -6.96875 C 48.210938 -6.96875 54.472656 -9.710938 59.296875 -15.203125 C 64.128906 -20.691406 66.546875 -28.082031 66.546875 -37.375 Z M 76.921875 -37.375 C 76.921875 -26.21875 73.703125 -16.867188 67.265625 -9.328125 C 60.828125 -1.785156 51.910156 1.984375 40.515625 1.984375 C 29.066406 1.984375 20.128906 -1.785156 13.703125 -9.328125 C 7.273438 -16.867188 4.0625 -26.21875 4.0625 -37.375 C 4.0625 -48.550781 7.273438 -57.898438 13.703125 -65.421875 C 20.128906 -72.953125 29.066406 -76.71875 40.515625 -76.71875 C 52.242188 -76.71875 61.242188 -72.882812 67.515625 -65.21875 C 73.785156 -57.5625 76.921875 -48.28125 76.921875 -37.375 Z M 76.921875 -37.375 "/></g></g></g><g fill="#171717" fill-opacity="1"><g transform="translate(1703.006381, 144.985431)"><g><path d="M 60.40625 -52.265625 C 59.28125 -57.347656 56.929688 -61.203125 53.359375 -63.828125 C 49.785156 -66.453125 45.148438 -67.765625 39.453125 -67.765625 C 32.097656 -67.765625 26.179688 -65.09375 21.703125 -59.75 C 17.234375 -54.414062 15 -47.207031 15 -38.125 C 15 -27.625 17.113281 -19.804688 21.34375 -14.671875 C 25.582031 -9.535156 31.722656 -6.96875 39.765625 -6.96875 C 45.046875 -6.96875 49.59375 -8.71875 53.40625 -12.21875 C 57.21875 -15.726562 59.785156 -20.820312 61.109375 -27.5 L 70.921875 -27.5 C 69.597656 -17.914062 65.953125 -10.601562 59.984375 -5.5625 C 54.023438 -0.53125 46.773438 1.984375 38.234375 1.984375 C 28.035156 1.984375 19.875 -1.519531 13.75 -8.53125 C 7.632812 -15.550781 4.578125 -25.300781 4.578125 -37.78125 C 4.578125 -49.8125 7.769531 -59.304688 14.15625 -66.265625 C 20.550781 -73.234375 28.984375 -76.71875 39.453125 -76.71875 C 48.128906 -76.71875 55.160156 -74.476562 60.546875 -70 C 65.941406 -65.53125 69.144531 -59.617188 70.15625 -52.265625 Z M 60.40625 -52.265625 "/></g></g></g><g fill="#171717" fill-opacity="1"><g transform="translate(1846.293952, 144.985431)"><g><path d="M 66.75 -74.734375 L 66.75 -26.234375 C 66.75 -17.960938 64.128906 -11.191406 58.890625 -5.921875 C 53.660156 -0.648438 46.25 1.984375 36.65625 1.984375 C 27.707031 1.984375 20.679688 -0.445312 15.578125 -5.3125 C 10.484375 -10.175781 7.9375 -16.691406 7.9375 -24.859375 L 7.9375 -74.734375 L 17.890625 -74.734375 L 17.890625 -27.703125 C 17.890625 -20.828125 19.609375 -15.648438 23.046875 -12.171875 C 26.492188 -8.703125 31.097656 -6.96875 36.859375 -6.96875 C 43.023438 -6.96875 47.84375 -8.703125 51.3125 -12.171875 C 54.789062 -15.648438 56.53125 -20.757812 56.53125 -27.5 L 56.53125 -74.734375 Z M 66.75 -74.734375 "/></g></g></g><g fill="#171717" fill-opacity="1"><g transform="translate(1988.818886, 144.985431)"><g><path d="M 52.46875 -52.875 C 52.269531 -57.625 50.5 -61.34375 47.15625 -64.03125 C 43.8125 -66.726562 39.414062 -68.078125 33.96875 -68.078125 C 28.46875 -68.078125 24.242188 -66.945312 21.296875 -64.6875 C 18.347656 -62.4375 16.875 -59.191406 16.875 -54.953125 C 16.875 -52.679688 17.519531 -50.734375 18.8125 -49.109375 C 20.101562 -47.484375 22.40625 -46.28125 25.71875 -45.5 L 47.078125 -40.625 C 52.835938 -39.363281 57.109375 -36.976562 59.890625 -33.46875 C 62.671875 -29.96875 64.0625 -25.691406 64.0625 -20.640625 C 64.0625 -13.253906 61.347656 -7.632812 55.921875 -3.78125 C 50.503906 0.0625 43.457031 1.984375 34.78125 1.984375 C 28.164062 1.984375 22.953125 1.140625 19.140625 -0.546875 C 15.328125 -2.242188 11.945312 -4.941406 9 -8.640625 C 6.050781 -12.335938 4.578125 -17.507812 4.578125 -24.15625 L 14.03125 -24.15625 C 14.03125 -18.59375 15.875 -14.285156 19.5625 -11.234375 C 23.257812 -8.179688 28.296875 -6.65625 34.671875 -6.65625 C 40.835938 -6.65625 45.640625 -7.75 49.078125 -9.9375 C 52.523438 -12.125 54.25 -15.234375 54.25 -19.265625 C 54.25 -22.929688 53.222656 -25.671875 51.171875 -27.484375 C 49.117188 -29.296875 45.113281 -30.894531 39.15625 -32.28125 L 23.03125 -36.046875 C 17.675781 -37.265625 13.675781 -39.390625 11.03125 -42.421875 C 8.382812 -45.460938 7.0625 -49.203125 7.0625 -53.640625 C 7.0625 -60.347656 9.320312 -65.867188 13.84375 -70.203125 C 18.375 -74.546875 24.691406 -76.71875 32.796875 -76.71875 C 41.941406 -76.71875 49 -74.8125 53.96875 -71 C 58.9375 -67.1875 61.609375 -61.144531 61.984375 -52.875 Z M 52.46875 -52.875 "/></g></g></g></svg>